<?xml version="1.0" standalone="no"?>
<!DOCTYPE svg PUBLIC "-//W3C//DTD SVG 20010904//EN"
 "http://www.w3.org/TR/2001/REC-SVG-20010904/DTD/svg10.dtd">
<svg version="1.0" xmlns="http://www.w3.org/2000/svg"
 width="432.000000pt" height="432.000000pt" viewBox="0 0 432.000000 432.000000"
 preserveAspectRatio="xMidYMid meet">

<g transform="translate(0.000000,432.000000) scale(0.100000,-0.100000)"
fill="#000000" stroke="none">
<path d="M1150 3215 l0 -125 155 0 155 0 0 -85 0 -85 120 0 120 0 0 85 0 85
428 0 c402 0 430 -2 470 -20 34 -15 47 -29 63 -65 19 -42 20 -63 17 -308 -3
-260 -3 -264 -27 -299 -13 -19 -39 -45 -57 -57 -69 -48 -101 -51 -511 -51
l-383 0 0 115 0 115 -120 0 -120 0 0 -640 0 -640 -155 0 -155 0 0 -125 0 -125
340 0 341 0 -3 122 -3 123 -62 3 -63 3 0 399 0 400 393 0 392 0 51 -24 c58
-27 101 -81 126 -156 l15 -45 126 -3 127 -3 -6 33 c-29 166 -96 264 -209 307
l-47 18 47 17 c77 30 139 87 177 163 l33 68 3 302 c4 347 -2 390 -67 483 -31
45 -52 62 -116 95 l-78 40 -758 3 -759 3 0 -126z"/>
<path d="M952 2819 c-49 -25 -79 -63 -98 -126 -20 -67 -20 -989 0 -1056 19
-62 50 -103 99 -130 39 -20 58 -22 235 -25 l192 -4 0 126 0 126 -145 0 -145 0
0 435 0 435 758 2 757 3 3 118 3 117 -808 0 c-802 0 -808 0 -851 -21z"/>
<path d="M3010 2722 l0 -120 96 -4 c119 -4 124 -9 124 -120 l0 -78 126 0 126
0 -4 128 c-4 142 -17 179 -80 238 -64 61 -90 68 -245 72 l-143 4 0 -120z"/>
<path d="M3230 1847 c0 -123 75 -112 -746 -115 l-704 -2 0 -125 0 -125 728 0
c839 0 803 -3 887 83 66 68 85 126 85 258 l0 99 -125 0 -125 0 0 -73z"/>
<path d="M2690 1320 l0 -80 -65 0 -65 0 0 -125 0 -125 310 0 311 0 -3 123 -3
122 -122 3 -123 3 0 79 0 80 -120 0 -120 0 0 -80z"/>
</g>
</svg>
